<?xml version="1.0" encoding="UTF-8"?>
<svg width="93px" height="93px" viewBox="0 0 93 93" version="1.1" xmlns="http://www.w3.org/2000/svg" xmlns:xlink="http://www.w3.org/1999/xlink">
    <title>logo</title>
    <g id="Page-1" stroke="none" stroke-width="1" fill="none" fill-rule="evenodd">
        <g id="logo" fill="#FFFFFF" fill-rule="nonzero">
            <path d="M92.056,46.336 C92.056,56.32 87.6877829,64.704 78.9513488,71.488 C70.2149147,78.272 59.2497984,81.664 46.056,81.664 C32.8622016,81.664 21.8970853,78.272 13.1606512,71.488 C4.42421705,64.704 0.056,56.32 0.056,46.336 C0.056,36.352 4.42421705,27.968 13.1606512,21.184 C21.8970853,14.4 32.8622016,11.008 46.056,11.008 C59.2497984,11.008 70.2149147,14.4 78.9513488,21.184 C87.6877829,27.968 92.056,36.352 92.056,46.336 Z M92.16,46.336 C92.16,33.450666 87.722666,22.506666 78.848,13.504 C69.973334,4.50133398 59.050666,0 46.08,0 C33.109334,0 22.186666,4.50133398 13.312,13.504 C4.43733398,22.506666 0,33.450666 0,46.336 C0,59.221334 4.43733398,70.165334 13.312,79.168 C22.186666,88.170666 33.109334,92.672 46.08,92.672 C59.050666,92.672 69.973334,88.170666 78.848,79.168 C87.722666,70.165334 92.16,59.221334 92.16,46.336 Z" id="Shape"></path>
            <g id="ORIS" transform="translate(23.000000, 39.000000)">
                <path d="M12.978,7.602 C12.978,9.24 12.4635,10.6155 11.4345,11.7285 C10.4055,12.8415 9.114,13.398 7.56,13.398 C6.006,13.398 4.7145,12.8415 3.6855,11.7285 C2.6565,10.6155 2.142,9.24 2.142,7.602 C2.142,5.964 2.6565,4.5885 3.6855,3.4755 C4.7145,2.3625 6.006,1.806 7.56,1.806 C9.114,1.806 10.4055,2.3625 11.4345,3.4755 C12.4635,4.5885 12.978,5.964 12.978,7.602 Z M15.12,7.602 C15.12,5.48799989 14.3919999,3.69249989 12.936,2.2155 C11.4800001,0.738500107 9.68799989,0 7.56,0 C5.43200011,0 3.63999989,0.738500107 2.184,2.2155 C0.728000107,3.69249989 -3.91919855e-23,5.48799989 -3.91919855e-23,7.602 C-3.91919855e-23,9.71600011 0.728000107,11.5115001 2.184,12.9885 C3.63999989,14.4654999 5.43200011,15.204 7.56,15.204 C9.68799989,15.204 11.4800001,14.4654999 12.936,12.9885 C14.3919999,11.5115001 15.12,9.71600011 15.12,7.602 Z" id="Shape"></path>
                <path d="M28.3900312,14.952 L23.7280312,8.61 C24.7360312,8.4 25.5865312,7.9485 26.2795312,7.2555 C26.9725312,6.5625 27.3190312,5.63499989 27.3190312,4.473 C27.3190312,3.52100011 27.0495314,2.71250011 26.5105312,2.0475 C25.9715311,1.38249989 25.3380314,0.917000107 24.6100312,0.651 C23.8820311,0.384999893 23.1120314,0.252 22.3000312,0.252 L17.9320312,0.252 L17.9320312,14.952 L19.9480312,14.952 L19.9480312,8.736 L21.4600312,8.736 L25.8700312,14.952 L28.3900312,14.952 Z M25.1770312,4.536 C25.1770312,5.334 24.8690311,5.9325 24.2530312,6.3315 C23.6370314,6.7305 22.8110311,6.93 21.7750312,6.93 L19.9480312,6.93 L19.9480312,2.058 L22.1950312,2.058 C23.0910314,2.058 23.8120312,2.28549989 24.3580312,2.7405 C24.9040312,3.19550011 25.1770312,3.79400011 25.1770312,4.536 Z" id="Shape"></path>
                <polygon id="Path" points="32.3780625 14.952 32.3780625 0.252 30.3620625 0.252 30.3620625 14.952"></polygon>
                <path d="M43.5480937,2.982 L44.7870937,1.512 C43.4570939,0.504 41.9380936,0 40.2300937,0 C38.9560936,0 37.8990937,0.3465 37.0590937,1.0395 C36.2190937,1.7325 35.7990937,2.73699989 35.7990937,4.053 C35.7990937,4.61300011 35.9145937,5.11700011 36.1455937,5.565 C36.3765937,6.01299989 36.7090936,6.3945 37.1430937,6.7095 C37.5770939,7.0245 38.0040937,7.28000011 38.4240937,7.476 C38.8440937,7.67199989 39.3480937,7.875 39.9360937,8.085 C40.4820937,8.28099989 40.9020937,8.43849989 41.1960937,8.5575 C41.4900937,8.67650011 41.8190939,8.84799989 42.1830937,9.072 C42.5470936,9.29600011 42.8095936,9.55149989 42.9705937,9.8385 C43.1315939,10.1255001 43.2120937,10.4649999 43.2120937,10.857 C43.2120937,11.697 42.9215939,12.3305001 42.3405937,12.7575 C41.7595936,13.1844999 41.0490937,13.398 40.2090937,13.398 C39.4530937,13.398 38.7810937,13.272 38.1930937,13.02 C37.6050937,12.768 36.9750937,12.3129999 36.3030937,11.655 L34.8750937,12.999 C36.3590939,14.469 38.1300937,15.204 40.1880937,15.204 C40.7760937,15.204 41.3640937,15.1164999 41.9520937,14.9415 C42.5400937,14.7665001 43.0930936,14.5074999 43.6110937,14.1645 C44.1290939,13.8215001 44.5490939,13.3419999 44.8710937,12.726 C45.1930936,12.1100001 45.3540937,11.4099999 45.3540937,10.626 C45.3540937,9.96800011 45.2315939,9.39050011 44.9865937,8.8935 C44.7415936,8.39649989 44.3705939,7.97300011 43.8735937,7.623 C43.3765936,7.27299989 42.9215939,7.0035 42.5085937,6.8145 C42.0955936,6.6255 41.5600936,6.41199989 40.9020937,6.174 C40.4540939,6.02000011 40.1320936,5.90450011 39.9360937,5.8275 C39.7400939,5.75049989 39.4740937,5.63499989 39.1380937,5.481 C38.8020937,5.32700011 38.5640939,5.18349989 38.4240937,5.0505 C38.2840936,4.91750011 38.1510937,4.746 38.0250937,4.536 C37.8990937,4.326 37.8360937,4.095 37.8360937,3.843 C37.8360937,3.19899989 38.0740936,2.6985 38.5500937,2.3415 C39.0260939,1.9845 39.6630937,1.806 40.4610937,1.806 C41.0210939,1.806 41.5845937,1.91799989 42.1515937,2.142 C42.7185937,2.36600011 43.1840939,2.646 43.5480937,2.982 Z" id="Path"></path>
            </g>
        </g>
    </g>
</svg>